<?xml version="1.0" encoding="UTF-8"?>
<svg id="Layer_1" xmlns="http://www.w3.org/2000/svg" viewBox="0 0 591.14 591.14">
    <defs>
        <style>.cls-1{fill:none;}.cls-2{fill:#fff;}.cls-3{fill:#656a70;}.cls-4{fill:#e51f3a;}</style>
    </defs>
    <circle class="cls-2" cx="295.57" cy="295.57" r="295.57"/>
    <g>
        <path class="cls-1"
              d="M355.09,163.98c-43.5,41.17-85.82,93.79-85.66,142.6,.11,32.75,14.18,59.17,33.08,79.9,20.15-29.35,37.63-61.88,48.91-96.81,15.52-48.1,13.5-90.42,3.67-125.69Z"/>
        <path class="cls-3"
              d="M279.83,47.38s48.25,37.79,71.15,103.48c7.07-5.35,14.1-10.4,20.96-15.15-34.26-59.27-92.11-88.33-92.11-88.33Z"/>
        <path class="cls-3"
              d="M351.42,289.67c-11.27,34.93-28.76,67.47-48.91,96.81,4.8,5.26,9.91,10.16,15.18,14.7,28.93-31.7,53.36-66.13,65.19-100.5,23.22-64.59,14.11-116.56-6.18-156.22-7.11,6.14-14.37,12.67-21.61,19.52,9.83,35.27,11.85,77.59-3.67,125.69Z"/>
        <path class="cls-3"
              d="M142.96,543.76s93.85-57.73,165.98-133.2c-5.45-3.3-10.82-6.83-16.01-10.62-64.8,87.87-149.97,143.83-149.97,143.83Z"/>
        <path class="cls-4"
              d="M317.69,401.18c-2.88,3.15-5.8,6.28-8.75,9.37,43.68,26.43,92.04,37.23,92.04,37.23,0,0-45.75-14.27-83.28-46.6Z"/>
        <path class="cls-4"
              d="M448.18,89.86s-34.97,17.28-76.24,45.85c1.65,2.85,3.23,5.77,4.76,8.75,37.99-32.82,71.48-54.6,71.48-54.6Z"/>
        <path class="cls-4"
              d="M269.44,306.58c-.17-48.81,42.16-101.43,85.66-142.6-1.25-4.49-2.63-8.86-4.11-13.12-49.67,37.54-101.43,89.13-109.69,145.3-6.79,46.13,18.96,79.94,51.64,103.77,3.25-4.41,6.45-8.88,9.59-13.45-18.9-20.73-32.97-47.15-33.08-79.9Z"/>
        <path class="cls-3"
              d="M376.7,144.46c-1.53-2.99-3.12-5.9-4.76-8.75-6.86,4.75-13.88,9.8-20.96,15.15,1.48,4.26,2.86,8.63,4.11,13.12,7.24-6.85,14.5-13.37,21.61-19.52Z"/>
        <path class="cls-4"
              d="M302.51,386.48c-3.13,4.56-6.34,9.04-9.59,13.45,5.2,3.79,10.57,7.33,16.01,10.62,2.96-3.09,5.88-6.22,8.75-9.37-5.27-4.54-10.38-9.44-15.18-14.7Z"/>
    </g>
</svg>